<svg width="76" height="44" viewBox="0 0 76 44" fill="none"
    xmlns="http://www.w3.org/2000/svg">
    <rect x="6.5" y="0.5" width="63" height="43" rx="2.5" fill="#007F9E" stroke="#1B4752"/>
    <path d="M29.2305 18.9277L26.9102 26H25.041L28.2109 17.4688H29.4004L29.2305 18.9277ZM31.1582 26L28.832 18.9277L28.6445 17.4688H29.8457L33.0332 26H31.1582ZM31.0527 22.8242V24.2012H26.5469V22.8242H31.0527ZM40.7676 17.4688V26H39.0098L35.582 20.2812V26H33.8242V17.4688H35.582L39.0156 23.1934V17.4688H40.7676ZM44.916 26H43.0586L43.0703 24.6289H44.916C45.377 24.6289 45.7656 24.5254 46.082 24.3184C46.3984 24.1074 46.6367 23.8008 46.7969 23.3984C46.9609 22.9961 47.043 22.5098 47.043 21.9395V21.5234C47.043 21.0859 46.9961 20.7012 46.9023 20.3691C46.8125 20.0371 46.6777 19.7578 46.498 19.5312C46.3184 19.3047 46.0977 19.1348 45.8359 19.0215C45.5742 18.9043 45.2734 18.8457 44.9336 18.8457H43.0234V17.4688H44.9336C45.5039 17.4688 46.0254 17.5664 46.498 17.7617C46.9746 17.9531 47.3867 18.2285 47.7344 18.5879C48.082 18.9473 48.3496 19.377 48.5371 19.877C48.7285 20.373 48.8242 20.9258 48.8242 21.5352V21.9395C48.8242 22.5449 48.7285 23.0977 48.5371 23.5977C48.3496 24.0977 48.082 24.5273 47.7344 24.8867C47.3906 25.2422 46.9785 25.5176 46.498 25.7129C46.0215 25.9043 45.4941 26 44.916 26ZM44.0547 17.4688V26H42.2969V17.4688H44.0547Z" fill="white"/>
    <rect x="64.5" y="16.5" width="11" height="11" rx="2.5" fill="white" stroke="#1B4752"/>
    <rect x="0.5" y="7.5" width="11" height="11" rx="2.5" fill="white" stroke="#1B4752"/>
    <rect x="0.5" y="25.5" width="11" height="11" rx="2.5" fill="white" stroke="#1B4752"/>
    <rect x="6.5" y="0.5" width="63" height="43" rx="2.5" fill="#007F9E" stroke="#1B4752"/>
    <path d="M29.2305 18.9277L26.9102 26H25.041L28.2109 17.4688H29.4004L29.2305 18.9277ZM31.1582 26L28.832 18.9277L28.6445 17.4688H29.8457L33.0332 26H31.1582ZM31.0527 22.8242V24.2012H26.5469V22.8242H31.0527ZM40.7676 17.4688V26H39.0098L35.582 20.2812V26H33.8242V17.4688H35.582L39.0156 23.1934V17.4688H40.7676ZM44.916 26H43.0586L43.0703 24.6289H44.916C45.377 24.6289 45.7656 24.5254 46.082 24.3184C46.3984 24.1074 46.6367 23.8008 46.7969 23.3984C46.9609 22.9961 47.043 22.5098 47.043 21.9395V21.5234C47.043 21.0859 46.9961 20.7012 46.9023 20.3691C46.8125 20.0371 46.6777 19.7578 46.498 19.5312C46.3184 19.3047 46.0977 19.1348 45.8359 19.0215C45.5742 18.9043 45.2734 18.8457 44.9336 18.8457H43.0234V17.4688H44.9336C45.5039 17.4688 46.0254 17.5664 46.498 17.7617C46.9746 17.9531 47.3867 18.2285 47.7344 18.5879C48.082 18.9473 48.3496 19.377 48.5371 19.877C48.7285 20.373 48.8242 20.9258 48.8242 21.5352V21.9395C48.8242 22.5449 48.7285 23.0977 48.5371 23.5977C48.3496 24.0977 48.082 24.5273 47.7344 24.8867C47.3906 25.2422 46.9785 25.5176 46.498 25.7129C46.0215 25.9043 45.4941 26 44.916 26ZM44.0547 17.4688V26H42.2969V17.4688H44.0547Z" fill="white"/>
    <rect x="64.5" y="16.5" width="11" height="11" rx="2.5" fill="white" stroke="#1B4752"/>
    <rect x="0.5" y="7.5" width="11" height="11" rx="2.5" fill="white" stroke="#1B4752"/>
    <rect x="0.5" y="25.5" width="11" height="11" rx="2.5" fill="white" stroke="#1B4752"/>
</svg>
