<svg width="84" height="40" viewBox="0 0 84 40" fill="none"
    xmlns="http://www.w3.org/2000/svg">
    <rect x="6.5" y="6.5" width="71" height="33" rx="2.5" fill="#007F9E" stroke="#1B4752"/>
    <path d="M21.3145 22.002H22.2168C22.5059 22.002 22.7441 21.9531 22.9316 21.8555C23.1191 21.7539 23.2578 21.6133 23.3477 21.4336C23.4414 21.25 23.4883 21.0371 23.4883 20.7949C23.4883 20.5762 23.4453 20.3828 23.3594 20.2148C23.2773 20.043 23.1504 19.9102 22.9785 19.8164C22.8066 19.7188 22.5898 19.6699 22.3281 19.6699C22.1211 19.6699 21.9297 19.7109 21.7539 19.793C21.5781 19.875 21.4375 19.9902 21.332 20.1387C21.2266 20.2871 21.1738 20.4668 21.1738 20.6777H19.4805C19.4805 20.209 19.6055 19.8008 19.8555 19.4531C20.1094 19.1055 20.4492 18.834 20.875 18.6387C21.3008 18.4434 21.7695 18.3457 22.2812 18.3457C22.8594 18.3457 23.3652 18.4395 23.7988 18.627C24.2324 18.8105 24.5703 19.082 24.8125 19.4414C25.0547 19.8008 25.1758 20.2461 25.1758 20.7773C25.1758 21.0469 25.1133 21.3086 24.9883 21.5625C24.8633 21.8125 24.6836 22.0391 24.4492 22.2422C24.2188 22.4414 23.9375 22.6016 23.6055 22.7227C23.2734 22.8398 22.9004 22.8984 22.4863 22.8984H21.3145V22.002ZM21.3145 23.2852V22.4121H22.4863C22.9512 22.4121 23.3594 22.4648 23.7109 22.5703C24.0625 22.6758 24.3574 22.8281 24.5957 23.0273C24.834 23.2227 25.0137 23.4551 25.1348 23.7246C25.2559 23.9902 25.3164 24.2852 25.3164 24.6094C25.3164 25.0078 25.2402 25.3633 25.0879 25.6758C24.9355 25.9844 24.7207 26.2461 24.4434 26.4609C24.1699 26.6758 23.8496 26.8398 23.4824 26.9531C23.1152 27.0625 22.7148 27.1172 22.2812 27.1172C21.9219 27.1172 21.5684 27.0684 21.2207 26.9707C20.877 26.8691 20.5645 26.7188 20.2832 26.5195C20.0059 26.3164 19.7832 26.0625 19.6152 25.7578C19.4512 25.4492 19.3691 25.084 19.3691 24.6621H21.0625C21.0625 24.8809 21.1172 25.0762 21.2266 25.248C21.3359 25.4199 21.4863 25.5547 21.6777 25.6523C21.873 25.75 22.0898 25.7988 22.3281 25.7988C22.5977 25.7988 22.8281 25.75 23.0195 25.6523C23.2148 25.5508 23.3633 25.4102 23.4648 25.2305C23.5703 25.0469 23.623 24.834 23.623 24.5918C23.623 24.2793 23.5664 24.0293 23.4531 23.8418C23.3398 23.6504 23.1777 23.5098 22.9668 23.4199C22.7559 23.3301 22.5059 23.2852 22.2168 23.2852H21.3145ZM34.082 24.7676C34.082 24.6152 34.0586 24.4785 34.0117 24.3574C33.9688 24.2324 33.8867 24.1191 33.7656 24.0176C33.6445 23.9121 33.4746 23.8086 33.2559 23.707C33.0371 23.6055 32.7539 23.5 32.4062 23.3906C32.0195 23.2656 31.6523 23.125 31.3047 22.9688C30.9609 22.8125 30.6562 22.6309 30.3906 22.4238C30.1289 22.2129 29.9219 21.9688 29.7695 21.6914C29.6211 21.4141 29.5469 21.0918 29.5469 20.7246C29.5469 20.3691 29.625 20.0469 29.7812 19.7578C29.9375 19.4648 30.1562 19.2148 30.4375 19.0078C30.7188 18.7969 31.0508 18.6348 31.4336 18.5215C31.8203 18.4082 32.2441 18.3516 32.7051 18.3516C33.334 18.3516 33.8828 18.4648 34.3516 18.6914C34.8203 18.918 35.1836 19.2285 35.4414 19.623C35.7031 20.0176 35.834 20.4688 35.834 20.9766H34.0879C34.0879 20.7266 34.0352 20.5078 33.9297 20.3203C33.8281 20.1289 33.6719 19.9785 33.4609 19.8691C33.2539 19.7598 32.9922 19.7051 32.6758 19.7051C32.3711 19.7051 32.1172 19.752 31.9141 19.8457C31.7109 19.9355 31.5586 20.0586 31.457 20.2148C31.3555 20.3672 31.3047 20.5391 31.3047 20.7305C31.3047 20.875 31.3398 21.0059 31.4102 21.123C31.4844 21.2402 31.5938 21.3496 31.7383 21.4512C31.8828 21.5527 32.0605 21.6484 32.2715 21.7383C32.4824 21.8281 32.7266 21.916 33.0039 22.002C33.4688 22.1426 33.877 22.3008 34.2285 22.4766C34.584 22.6523 34.8809 22.8496 35.1191 23.0684C35.3574 23.2871 35.5371 23.5352 35.6582 23.8125C35.7793 24.0898 35.8398 24.4043 35.8398 24.7559C35.8398 25.127 35.7676 25.459 35.623 25.752C35.4785 26.0449 35.2695 26.293 34.9961 26.4961C34.7227 26.6992 34.3965 26.8535 34.0176 26.959C33.6387 27.0645 33.2148 27.1172 32.7461 27.1172C32.3242 27.1172 31.9082 27.0625 31.498 26.9531C31.0879 26.8398 30.7148 26.6699 30.3789 26.4434C30.0469 26.2168 29.7812 25.9277 29.582 25.5762C29.3828 25.2246 29.2832 24.8086 29.2832 24.3281H31.0469C31.0469 24.5938 31.0879 24.8184 31.1699 25.002C31.252 25.1855 31.3672 25.334 31.5156 25.4473C31.668 25.5605 31.8477 25.6426 32.0547 25.6934C32.2656 25.7441 32.4961 25.7695 32.7461 25.7695C33.0508 25.7695 33.3008 25.7266 33.4961 25.6406C33.6953 25.5547 33.8418 25.4355 33.9355 25.2832C34.0332 25.1309 34.082 24.959 34.082 24.7676ZM40.8496 18.4688V27H39.0977V18.4688H40.8496ZM43.4746 18.4688V19.8457H36.5137V18.4688H43.4746ZM47.3125 19.9277L44.9922 27H43.123L46.293 18.4688H47.4824L47.3125 19.9277ZM49.2402 27L46.9141 19.9277L46.7266 18.4688H47.9277L51.1152 27H49.2402ZM49.1348 23.8242V25.2012H44.6289V23.8242H49.1348ZM54.9941 18.4688V27H53.2422V18.4688H54.9941ZM57.6191 18.4688V19.8457H50.6582V18.4688H57.6191ZM64.3457 25.6289V27H59.8047V25.6289H64.3457ZM60.3789 18.4688V27H58.6211V18.4688H60.3789ZM63.7539 21.9434V23.2793H59.8047V21.9434H63.7539ZM64.3398 18.4688V19.8457H59.8047V18.4688H64.3398Z" fill="white"/>
    <rect x="72.5" y="17.5" width="11" height="11" rx="2.5" fill="white" stroke="#1B4752"/>
    <rect x="36.5" y="0.5" width="11" height="11" rx="2.5" fill="white" stroke="#1B4752"/>
    <rect x="0.5" y="17.5" width="11" height="11" rx="2.5" fill="white" stroke="#1B4752"/>
</svg>
