<svg width="76" height="30" viewBox="0 0 76 30" fill="none"
    xmlns="http://www.w3.org/2000/svg">
    <rect x="6.5" y="0.5" width="63" height="29" rx="2.5" fill="#007F9E" stroke="#1B4752"/>
    <path d="M20.1016 15.2559H17.9102L17.8984 14.0488H19.7383C20.0625 14.0488 20.3281 14.0078 20.5352 13.9258C20.7422 13.8398 20.8965 13.7168 20.998 13.5566C21.1035 13.3926 21.1562 13.1934 21.1562 12.959C21.1562 12.6934 21.1055 12.4785 21.0039 12.3145C20.9062 12.1504 20.752 12.0312 20.541 11.957C20.334 11.8828 20.0664 11.8457 19.7383 11.8457H18.5195V19H16.7617V10.4688H19.7383C20.2344 10.4688 20.6777 10.5156 21.0684 10.6094C21.4629 10.7031 21.7969 10.8457 22.0703 11.0371C22.3438 11.2285 22.5527 11.4707 22.6973 11.7637C22.8418 12.0527 22.9141 12.3965 22.9141 12.7949C22.9141 13.1465 22.834 13.4707 22.6738 13.7676C22.5176 14.0645 22.2695 14.3066 21.9297 14.4941C21.5938 14.6816 21.1543 14.7852 20.6113 14.8047L20.1016 15.2559ZM20.0254 19H17.4297L18.1152 17.6289H20.0254C20.334 17.6289 20.5859 17.5801 20.7812 17.4824C20.9766 17.3809 21.1211 17.2441 21.2148 17.0723C21.3086 16.9004 21.3555 16.7031 21.3555 16.4805C21.3555 16.2305 21.3125 16.0137 21.2266 15.8301C21.1445 15.6465 21.0117 15.5059 20.8281 15.4082C20.6445 15.3066 20.4023 15.2559 20.1016 15.2559H18.4082L18.4199 14.0488H20.5293L20.9336 14.5234C21.4531 14.5156 21.8711 14.6074 22.1875 14.7988C22.5078 14.9863 22.7402 15.2305 22.8848 15.5312C23.0332 15.832 23.1074 16.1543 23.1074 16.498C23.1074 17.0449 22.9883 17.5059 22.75 17.8809C22.5117 18.252 22.1621 18.5312 21.7012 18.7188C21.2441 18.9062 20.6855 19 20.0254 19ZM29.1367 10.4688H30.8887V16.1055C30.8887 16.7617 30.748 17.3145 30.4668 17.7637C30.1895 18.2129 29.8047 18.5508 29.3125 18.7773C28.8242 19.0039 28.2617 19.1172 27.625 19.1172C26.9883 19.1172 26.4219 19.0039 25.9258 18.7773C25.4336 18.5508 25.0469 18.2129 24.7656 17.7637C24.4883 17.3145 24.3496 16.7617 24.3496 16.1055V10.4688H26.1074V16.1055C26.1074 16.4883 26.168 16.8008 26.2891 17.043C26.4102 17.2852 26.584 17.4629 26.8105 17.5762C27.041 17.6895 27.3125 17.7461 27.625 17.7461C27.9453 17.7461 28.2168 17.6895 28.4395 17.5762C28.666 17.4629 28.8379 17.2852 28.9551 17.043C29.0762 16.8008 29.1367 16.4883 29.1367 16.1055V10.4688ZM34.0938 10.4688V19H32.3359V10.4688H34.0938ZM37.4922 14.1133V15.4844H33.6133V14.1133H37.4922ZM37.9023 10.4688V11.8457H33.6133V10.4688H37.9023ZM40.6797 10.4688V19H38.9219V10.4688H40.6797ZM44.0781 14.1133V15.4844H40.1992V14.1133H44.0781ZM44.4883 10.4688V11.8457H40.1992V10.4688H44.4883ZM51.2324 17.6289V19H46.6914V17.6289H51.2324ZM47.2656 10.4688V19H45.5078V10.4688H47.2656ZM50.6406 13.9434V15.2793H46.6914V13.9434H50.6406ZM51.2266 10.4688V11.8457H46.6914V10.4688H51.2266ZM52.2578 10.4688H55.4395C56.0918 10.4688 56.6523 10.5664 57.1211 10.7617C57.5938 10.957 57.957 11.2461 58.2109 11.6289C58.4648 12.0117 58.5918 12.4824 58.5918 13.041C58.5918 13.498 58.5137 13.8906 58.3574 14.2188C58.2051 14.543 57.9883 14.8145 57.707 15.0332C57.4297 15.248 57.1035 15.4199 56.7285 15.5488L56.1719 15.8418H53.4062L53.3945 14.4707H55.4512C55.7598 14.4707 56.0156 14.416 56.2188 14.3066C56.4219 14.1973 56.5742 14.0449 56.6758 13.8496C56.7812 13.6543 56.834 13.4277 56.834 13.1699C56.834 12.8965 56.7832 12.6602 56.6816 12.4609C56.5801 12.2617 56.4258 12.1094 56.2188 12.0039C56.0117 11.8984 55.752 11.8457 55.4395 11.8457H54.0156V19H52.2578V10.4688ZM57.0273 19L55.082 15.1973L56.9395 15.1855L58.9082 18.918V19H57.0273Z" fill="white"/>
    <rect x="64.5" y="9.5" width="11" height="11" rx="2.5" fill="white" stroke="#1B4752"/>
    <rect x="0.5" y="9.5" width="11" height="11" rx="2.5" fill="white" stroke="#1B4752"/>
</svg>
