<svg width="76" height="44" viewBox="0 0 76 44" fill="none"
    xmlns="http://www.w3.org/2000/svg">
    <rect x="6.5" y="0.5" width="63" height="43" rx="2.5" fill="#007F9E" stroke="#1B4752"/>
    <path d="M30.1016 22.2559H27.9102L27.8984 21.0488H29.7383C30.0625 21.0488 30.3281 21.0078 30.5352 20.9258C30.7422 20.8398 30.8965 20.7168 30.998 20.5566C31.1035 20.3926 31.1562 20.1934 31.1562 19.959C31.1562 19.6934 31.1055 19.4785 31.0039 19.3145C30.9062 19.1504 30.752 19.0312 30.541 18.957C30.334 18.8828 30.0664 18.8457 29.7383 18.8457H28.5195V26H26.7617V17.4688H29.7383C30.2344 17.4688 30.6777 17.5156 31.0684 17.6094C31.4629 17.7031 31.7969 17.8457 32.0703 18.0371C32.3438 18.2285 32.5527 18.4707 32.6973 18.7637C32.8418 19.0527 32.9141 19.3965 32.9141 19.7949C32.9141 20.1465 32.834 20.4707 32.6738 20.7676C32.5176 21.0645 32.2695 21.3066 31.9297 21.4941C31.5938 21.6816 31.1543 21.7852 30.6113 21.8047L30.1016 22.2559ZM30.0254 26H27.4297L28.1152 24.6289H30.0254C30.334 24.6289 30.5859 24.5801 30.7812 24.4824C30.9766 24.3809 31.1211 24.2441 31.2148 24.0723C31.3086 23.9004 31.3555 23.7031 31.3555 23.4805C31.3555 23.2305 31.3125 23.0137 31.2266 22.8301C31.1445 22.6465 31.0117 22.5059 30.8281 22.4082C30.6445 22.3066 30.4023 22.2559 30.1016 22.2559H28.4082L28.4199 21.0488H30.5293L30.9336 21.5234C31.4531 21.5156 31.8711 21.6074 32.1875 21.7988C32.5078 21.9863 32.7402 22.2305 32.8848 22.5312C33.0332 22.832 33.1074 23.1543 33.1074 23.498C33.1074 24.0449 32.9883 24.5059 32.75 24.8809C32.5117 25.252 32.1621 25.5312 31.7012 25.7188C31.2441 25.9062 30.6855 26 30.0254 26ZM39.1367 17.4688H40.8887V23.1055C40.8887 23.7617 40.748 24.3145 40.4668 24.7637C40.1895 25.2129 39.8047 25.5508 39.3125 25.7773C38.8242 26.0039 38.2617 26.1172 37.625 26.1172C36.9883 26.1172 36.4219 26.0039 35.9258 25.7773C35.4336 25.5508 35.0469 25.2129 34.7656 24.7637C34.4883 24.3145 34.3496 23.7617 34.3496 23.1055V17.4688H36.1074V23.1055C36.1074 23.4883 36.168 23.8008 36.2891 24.043C36.4102 24.2852 36.584 24.4629 36.8105 24.5762C37.041 24.6895 37.3125 24.7461 37.625 24.7461C37.9453 24.7461 38.2168 24.6895 38.4395 24.5762C38.666 24.4629 38.8379 24.2852 38.9551 24.043C39.0762 23.8008 39.1367 23.4883 39.1367 23.1055V17.4688ZM46.7773 23.7676C46.7773 23.6152 46.7539 23.4785 46.707 23.3574C46.6641 23.2324 46.582 23.1191 46.4609 23.0176C46.3398 22.9121 46.1699 22.8086 45.9512 22.707C45.7324 22.6055 45.4492 22.5 45.1016 22.3906C44.7148 22.2656 44.3477 22.125 44 21.9688C43.6562 21.8125 43.3516 21.6309 43.0859 21.4238C42.8242 21.2129 42.6172 20.9688 42.4648 20.6914C42.3164 20.4141 42.2422 20.0918 42.2422 19.7246C42.2422 19.3691 42.3203 19.0469 42.4766 18.7578C42.6328 18.4648 42.8516 18.2148 43.1328 18.0078C43.4141 17.7969 43.7461 17.6348 44.1289 17.5215C44.5156 17.4082 44.9395 17.3516 45.4004 17.3516C46.0293 17.3516 46.5781 17.4648 47.0469 17.6914C47.5156 17.918 47.8789 18.2285 48.1367 18.623C48.3984 19.0176 48.5293 19.4688 48.5293 19.9766H46.7832C46.7832 19.7266 46.7305 19.5078 46.625 19.3203C46.5234 19.1289 46.3672 18.9785 46.1562 18.8691C45.9492 18.7598 45.6875 18.7051 45.3711 18.7051C45.0664 18.7051 44.8125 18.752 44.6094 18.8457C44.4062 18.9355 44.2539 19.0586 44.1523 19.2148C44.0508 19.3672 44 19.5391 44 19.7305C44 19.875 44.0352 20.0059 44.1055 20.123C44.1797 20.2402 44.2891 20.3496 44.4336 20.4512C44.5781 20.5527 44.7559 20.6484 44.9668 20.7383C45.1777 20.8281 45.4219 20.916 45.6992 21.002C46.1641 21.1426 46.5723 21.3008 46.9238 21.4766C47.2793 21.6523 47.5762 21.8496 47.8145 22.0684C48.0527 22.2871 48.2324 22.5352 48.3535 22.8125C48.4746 23.0898 48.5352 23.4043 48.5352 23.7559C48.5352 24.127 48.4629 24.459 48.3184 24.752C48.1738 25.0449 47.9648 25.293 47.6914 25.4961C47.418 25.6992 47.0918 25.8535 46.7129 25.959C46.334 26.0645 45.9102 26.1172 45.4414 26.1172C45.0195 26.1172 44.6035 26.0625 44.1934 25.9531C43.7832 25.8398 43.4102 25.6699 43.0742 25.4434C42.7422 25.2168 42.4766 24.9277 42.2773 24.5762C42.0781 24.2246 41.9785 23.8086 41.9785 23.3281H43.7422C43.7422 23.5938 43.7832 23.8184 43.8652 24.002C43.9473 24.1855 44.0625 24.334 44.2109 24.4473C44.3633 24.5605 44.543 24.6426 44.75 24.6934C44.9609 24.7441 45.1914 24.7695 45.4414 24.7695C45.7461 24.7695 45.9961 24.7266 46.1914 24.6406C46.3906 24.5547 46.5371 24.4355 46.6309 24.2832C46.7285 24.1309 46.7773 23.959 46.7773 23.7676Z" fill="white"/>
    <rect x="64.5" y="16.5" width="11" height="11" rx="2.5" fill="white" stroke="#1B4752"/>
    <rect x="0.5" y="7.5" width="11" height="11" rx="2.5" fill="white" stroke="#1B4752"/>
    <rect x="0.5" y="25.5" width="11" height="11" rx="2.5" fill="white" stroke="#1B4752"/>
</svg>
