<svg width="76" height="44" viewBox="0 0 76 44" fill="none"
    xmlns="http://www.w3.org/2000/svg">
    <rect x="6.5" y="0.5" width="63" height="43" rx="2.5" fill="#007F9E" stroke="#1B4752"/>
    <path d="M28.7051 16.4688V25H26.9473L23.5195 19.2812V25H21.7617V16.4688H23.5195L26.9531 22.1934V16.4688H28.7051ZM33.8086 17.9277L31.4883 25H29.6191L32.7891 16.4688H33.9785L33.8086 17.9277ZM35.7363 25L33.4102 17.9277L33.2227 16.4688H34.4238L37.6113 25H35.7363ZM35.6309 21.8242V23.2012H31.125V21.8242H35.6309ZM45.3457 16.4688V25H43.5879L40.1602 19.2812V25H38.4023V16.4688H40.1602L43.5938 22.1934V16.4688H45.3457ZM49.4941 25H47.6367L47.6484 23.6289H49.4941C49.9551 23.6289 50.3438 23.5254 50.6602 23.3184C50.9766 23.1074 51.2148 22.8008 51.375 22.3984C51.5391 21.9961 51.6211 21.5098 51.6211 20.9395V20.5234C51.6211 20.0859 51.5742 19.7012 51.4805 19.3691C51.3906 19.0371 51.2559 18.7578 51.0762 18.5312C50.8965 18.3047 50.6758 18.1348 50.4141 18.0215C50.1523 17.9043 49.8516 17.8457 49.5117 17.8457H47.6016V16.4688H49.5117C50.082 16.4688 50.6035 16.5664 51.0762 16.7617C51.5527 16.9531 51.9648 17.2285 52.3125 17.5879C52.6602 17.9473 52.9277 18.377 53.1152 18.877C53.3066 19.373 53.4023 19.9258 53.4023 20.5352V20.9395C53.4023 21.5449 53.3066 22.0977 53.1152 22.5977C52.9277 23.0977 52.6602 23.5273 52.3125 23.8867C51.9688 24.2422 51.5566 24.5176 51.0762 24.7129C50.5996 24.9043 50.0723 25 49.4941 25ZM48.6328 16.4688V25H46.875V16.4688H48.6328Z" fill="white"/>
    <rect x="64.5" y="16.5" width="11" height="11" rx="2.5" fill="white" stroke="#1B4752"/>
    <rect x="0.5" y="7.5" width="11" height="11" rx="2.5" fill="white" stroke="#1B4752"/>
    <rect x="0.5" y="25.5" width="11" height="11" rx="2.5" fill="white" stroke="#1B4752"/>
</svg>
