<svg width="76" height="44" viewBox="0 0 76 44" fill="none"
    xmlns="http://www.w3.org/2000/svg">
    <rect x="6.5" y="0.5" width="63" height="43" rx="2.5" fill="#007F9E" stroke="#1B4752"/>
    <path d="M32.7051 17.4688V26H30.9473L27.5195 20.2812V26H25.7617V17.4688H27.5195L30.9531 23.1934V17.4688H32.7051ZM41.2422 21.5352V21.9395C41.2422 22.5879 41.1543 23.1699 40.9785 23.6855C40.8027 24.2012 40.5547 24.6406 40.2344 25.0039C39.9141 25.3633 39.5312 25.6387 39.0859 25.8301C38.6445 26.0215 38.1543 26.1172 37.6152 26.1172C37.0801 26.1172 36.5898 26.0215 36.1445 25.8301C35.7031 25.6387 35.3203 25.3633 34.9961 25.0039C34.6719 24.6406 34.4199 24.2012 34.2402 23.6855C34.0645 23.1699 33.9766 22.5879 33.9766 21.9395V21.5352C33.9766 20.8828 34.0645 20.3008 34.2402 19.7891C34.416 19.2734 34.6641 18.834 34.9844 18.4707C35.3086 18.1074 35.6914 17.8301 36.1328 17.6387C36.5781 17.4473 37.0684 17.3516 37.6035 17.3516C38.1426 17.3516 38.6328 17.4473 39.0742 17.6387C39.5195 17.8301 39.9023 18.1074 40.2227 18.4707C40.5469 18.834 40.7969 19.2734 40.9727 19.7891C41.1523 20.3008 41.2422 20.8828 41.2422 21.5352ZM39.4668 21.9395V21.5234C39.4668 21.0703 39.4258 20.6719 39.3438 20.3281C39.2617 19.9844 39.1406 19.6953 38.9805 19.4609C38.8203 19.2266 38.625 19.0508 38.3945 18.9336C38.1641 18.8125 37.9004 18.752 37.6035 18.752C37.3066 18.752 37.043 18.8125 36.8125 18.9336C36.5859 19.0508 36.3926 19.2266 36.2324 19.4609C36.0762 19.6953 35.957 19.9844 35.875 20.3281C35.793 20.6719 35.752 21.0703 35.752 21.5234V21.9395C35.752 22.3887 35.793 22.7871 35.875 23.1348C35.957 23.4785 36.0781 23.7695 36.2383 24.0078C36.3984 24.2422 36.5938 24.4199 36.8242 24.541C37.0547 24.6621 37.3184 24.7227 37.6152 24.7227C37.9121 24.7227 38.1758 24.6621 38.4062 24.541C38.6367 24.4199 38.8301 24.2422 38.9863 24.0078C39.1426 23.7695 39.2617 23.4785 39.3438 23.1348C39.4258 22.7871 39.4668 22.3887 39.4668 21.9395ZM42.5078 17.4688H45.6895C46.3418 17.4688 46.9023 17.5664 47.3711 17.7617C47.8438 17.957 48.207 18.2461 48.4609 18.6289C48.7148 19.0117 48.8418 19.4824 48.8418 20.041C48.8418 20.498 48.7637 20.8906 48.6074 21.2188C48.4551 21.543 48.2383 21.8145 47.957 22.0332C47.6797 22.248 47.3535 22.4199 46.9785 22.5488L46.4219 22.8418H43.6562L43.6445 21.4707H45.7012C46.0098 21.4707 46.2656 21.416 46.4688 21.3066C46.6719 21.1973 46.8242 21.0449 46.9258 20.8496C47.0312 20.6543 47.084 20.4277 47.084 20.1699C47.084 19.8965 47.0332 19.6602 46.9316 19.4609C46.8301 19.2617 46.6758 19.1094 46.4688 19.0039C46.2617 18.8984 46.002 18.8457 45.6895 18.8457H44.2656V26H42.5078V17.4688ZM47.2773 26L45.332 22.1973L47.1895 22.1855L49.1582 25.918V26H47.2773Z" fill="white"/>
    <rect x="64.5" y="16.5" width="11" height="11" rx="2.5" fill="white" stroke="#1B4752"/>
    <rect x="0.5" y="7.5" width="11" height="11" rx="2.5" fill="white" stroke="#1B4752"/>
    <rect x="0.5" y="25.5" width="11" height="11" rx="2.5" fill="white" stroke="#1B4752"/>
    <rect x="6.5" y="0.5" width="63" height="43" rx="2.5" fill="#007F9E" stroke="#1B4752"/>
    <path d="M32.7051 17.4688V26H30.9473L27.5195 20.2812V26H25.7617V17.4688H27.5195L30.9531 23.1934V17.4688H32.7051ZM41.2422 21.5352V21.9395C41.2422 22.5879 41.1543 23.1699 40.9785 23.6855C40.8027 24.2012 40.5547 24.6406 40.2344 25.0039C39.9141 25.3633 39.5312 25.6387 39.0859 25.8301C38.6445 26.0215 38.1543 26.1172 37.6152 26.1172C37.0801 26.1172 36.5898 26.0215 36.1445 25.8301C35.7031 25.6387 35.3203 25.3633 34.9961 25.0039C34.6719 24.6406 34.4199 24.2012 34.2402 23.6855C34.0645 23.1699 33.9766 22.5879 33.9766 21.9395V21.5352C33.9766 20.8828 34.0645 20.3008 34.2402 19.7891C34.416 19.2734 34.6641 18.834 34.9844 18.4707C35.3086 18.1074 35.6914 17.8301 36.1328 17.6387C36.5781 17.4473 37.0684 17.3516 37.6035 17.3516C38.1426 17.3516 38.6328 17.4473 39.0742 17.6387C39.5195 17.8301 39.9023 18.1074 40.2227 18.4707C40.5469 18.834 40.7969 19.2734 40.9727 19.7891C41.1523 20.3008 41.2422 20.8828 41.2422 21.5352ZM39.4668 21.9395V21.5234C39.4668 21.0703 39.4258 20.6719 39.3438 20.3281C39.2617 19.9844 39.1406 19.6953 38.9805 19.4609C38.8203 19.2266 38.625 19.0508 38.3945 18.9336C38.1641 18.8125 37.9004 18.752 37.6035 18.752C37.3066 18.752 37.043 18.8125 36.8125 18.9336C36.5859 19.0508 36.3926 19.2266 36.2324 19.4609C36.0762 19.6953 35.957 19.9844 35.875 20.3281C35.793 20.6719 35.752 21.0703 35.752 21.5234V21.9395C35.752 22.3887 35.793 22.7871 35.875 23.1348C35.957 23.4785 36.0781 23.7695 36.2383 24.0078C36.3984 24.2422 36.5938 24.4199 36.8242 24.541C37.0547 24.6621 37.3184 24.7227 37.6152 24.7227C37.9121 24.7227 38.1758 24.6621 38.4062 24.541C38.6367 24.4199 38.8301 24.2422 38.9863 24.0078C39.1426 23.7695 39.2617 23.4785 39.3438 23.1348C39.4258 22.7871 39.4668 22.3887 39.4668 21.9395ZM42.5078 17.4688H45.6895C46.3418 17.4688 46.9023 17.5664 47.3711 17.7617C47.8438 17.957 48.207 18.2461 48.4609 18.6289C48.7148 19.0117 48.8418 19.4824 48.8418 20.041C48.8418 20.498 48.7637 20.8906 48.6074 21.2188C48.4551 21.543 48.2383 21.8145 47.957 22.0332C47.6797 22.248 47.3535 22.4199 46.9785 22.5488L46.4219 22.8418H43.6562L43.6445 21.4707H45.7012C46.0098 21.4707 46.2656 21.416 46.4688 21.3066C46.6719 21.1973 46.8242 21.0449 46.9258 20.8496C47.0312 20.6543 47.084 20.4277 47.084 20.1699C47.084 19.8965 47.0332 19.6602 46.9316 19.4609C46.8301 19.2617 46.6758 19.1094 46.4688 19.0039C46.2617 18.8984 46.002 18.8457 45.6895 18.8457H44.2656V26H42.5078V17.4688ZM47.2773 26L45.332 22.1973L47.1895 22.1855L49.1582 25.918V26H47.2773Z" fill="white"/>
    <rect x="64.5" y="16.5" width="11" height="11" rx="2.5" fill="white" stroke="#1B4752"/>
    <rect x="0.5" y="7.5" width="11" height="11" rx="2.5" fill="white" stroke="#1B4752"/>
    <rect x="0.5" y="25.5" width="11" height="11" rx="2.5" fill="white" stroke="#1B4752"/>
</svg>
