<svg width="76" height="30" viewBox="0 0 76 30" fill="none"
    xmlns="http://www.w3.org/2000/svg">
    <rect x="6.5" y="0.5" width="63" height="29" rx="2.5" fill="#007F9E" stroke="#1B4752"/>
    <path d="M33.7051 10.4688V19H31.9473L28.5195 13.2812V19H26.7617V10.4688H28.5195L31.9531 16.1934V10.4688H33.7051ZM42.2422 14.5352V14.9395C42.2422 15.5879 42.1543 16.1699 41.9785 16.6855C41.8027 17.2012 41.5547 17.6406 41.2344 18.0039C40.9141 18.3633 40.5312 18.6387 40.0859 18.8301C39.6445 19.0215 39.1543 19.1172 38.6152 19.1172C38.0801 19.1172 37.5898 19.0215 37.1445 18.8301C36.7031 18.6387 36.3203 18.3633 35.9961 18.0039C35.6719 17.6406 35.4199 17.2012 35.2402 16.6855C35.0645 16.1699 34.9766 15.5879 34.9766 14.9395V14.5352C34.9766 13.8828 35.0645 13.3008 35.2402 12.7891C35.416 12.2734 35.6641 11.834 35.9844 11.4707C36.3086 11.1074 36.6914 10.8301 37.1328 10.6387C37.5781 10.4473 38.0684 10.3516 38.6035 10.3516C39.1426 10.3516 39.6328 10.4473 40.0742 10.6387C40.5195 10.8301 40.9023 11.1074 41.2227 11.4707C41.5469 11.834 41.7969 12.2734 41.9727 12.7891C42.1523 13.3008 42.2422 13.8828 42.2422 14.5352ZM40.4668 14.9395V14.5234C40.4668 14.0703 40.4258 13.6719 40.3438 13.3281C40.2617 12.9844 40.1406 12.6953 39.9805 12.4609C39.8203 12.2266 39.625 12.0508 39.3945 11.9336C39.1641 11.8125 38.9004 11.752 38.6035 11.752C38.3066 11.752 38.043 11.8125 37.8125 11.9336C37.5859 12.0508 37.3926 12.2266 37.2324 12.4609C37.0762 12.6953 36.957 12.9844 36.875 13.3281C36.793 13.6719 36.752 14.0703 36.752 14.5234V14.9395C36.752 15.3887 36.793 15.7871 36.875 16.1348C36.957 16.4785 37.0781 16.7695 37.2383 17.0078C37.3984 17.2422 37.5938 17.4199 37.8242 17.541C38.0547 17.6621 38.3184 17.7227 38.6152 17.7227C38.9121 17.7227 39.1758 17.6621 39.4062 17.541C39.6367 17.4199 39.8301 17.2422 39.9863 17.0078C40.1426 16.7695 40.2617 16.4785 40.3438 16.1348C40.4258 15.7871 40.4668 15.3887 40.4668 14.9395ZM46.9238 10.4688V19H45.1719V10.4688H46.9238ZM49.5488 10.4688V11.8457H42.5879V10.4688H49.5488Z" fill="white"/>
    <rect x="64.5" y="9.5" width="11" height="11" rx="2.5" fill="white" stroke="#1B4752"/>
    <rect x="0.5" y="9.5" width="11" height="11" rx="2.5" fill="white" stroke="#1B4752"/>
</svg>
