<svg width="76" height="44" viewBox="0 0 76 44" fill="none"
    xmlns="http://www.w3.org/2000/svg">
    <rect x="6.5" y="0.5" width="63" height="43" rx="2.5" fill="#007F9E" stroke="#1B4752"/>
    <path d="M37.7695 21.5352V21.9395C37.7695 22.5879 37.6816 23.1699 37.5059 23.6855C37.3301 24.2012 37.082 24.6406 36.7617 25.0039C36.4414 25.3633 36.0586 25.6387 35.6133 25.8301C35.1719 26.0215 34.6816 26.1172 34.1426 26.1172C33.6074 26.1172 33.1172 26.0215 32.6719 25.8301C32.2305 25.6387 31.8477 25.3633 31.5234 25.0039C31.1992 24.6406 30.9473 24.2012 30.7676 23.6855C30.5918 23.1699 30.5039 22.5879 30.5039 21.9395V21.5352C30.5039 20.8828 30.5918 20.3008 30.7676 19.7891C30.9434 19.2734 31.1914 18.834 31.5117 18.4707C31.8359 18.1074 32.2188 17.8301 32.6602 17.6387C33.1055 17.4473 33.5957 17.3516 34.1309 17.3516C34.6699 17.3516 35.1602 17.4473 35.6016 17.6387C36.0469 17.8301 36.4297 18.1074 36.75 18.4707C37.0742 18.834 37.3242 19.2734 37.5 19.7891C37.6797 20.3008 37.7695 20.8828 37.7695 21.5352ZM35.9941 21.9395V21.5234C35.9941 21.0703 35.9531 20.6719 35.8711 20.3281C35.7891 19.9844 35.668 19.6953 35.5078 19.4609C35.3477 19.2266 35.1523 19.0508 34.9219 18.9336C34.6914 18.8125 34.4277 18.752 34.1309 18.752C33.834 18.752 33.5703 18.8125 33.3398 18.9336C33.1133 19.0508 32.9199 19.2266 32.7598 19.4609C32.6035 19.6953 32.4844 19.9844 32.4023 20.3281C32.3203 20.6719 32.2793 21.0703 32.2793 21.5234V21.9395C32.2793 22.3887 32.3203 22.7871 32.4023 23.1348C32.4844 23.4785 32.6055 23.7695 32.7656 24.0078C32.9258 24.2422 33.1211 24.4199 33.3516 24.541C33.582 24.6621 33.8457 24.7227 34.1426 24.7227C34.4395 24.7227 34.7031 24.6621 34.9336 24.541C35.1641 24.4199 35.3574 24.2422 35.5137 24.0078C35.6699 23.7695 35.7891 23.4785 35.8711 23.1348C35.9531 22.7871 35.9941 22.3887 35.9941 21.9395ZM39.0352 17.4688H42.2168C42.8691 17.4688 43.4297 17.5664 43.8984 17.7617C44.3711 17.957 44.7344 18.2461 44.9883 18.6289C45.2422 19.0117 45.3691 19.4824 45.3691 20.041C45.3691 20.498 45.291 20.8906 45.1348 21.2188C44.9824 21.543 44.7656 21.8145 44.4844 22.0332C44.207 22.248 43.8809 22.4199 43.5059 22.5488L42.9492 22.8418H40.1836L40.1719 21.4707H42.2285C42.5371 21.4707 42.793 21.416 42.9961 21.3066C43.1992 21.1973 43.3516 21.0449 43.4531 20.8496C43.5586 20.6543 43.6113 20.4277 43.6113 20.1699C43.6113 19.8965 43.5605 19.6602 43.459 19.4609C43.3574 19.2617 43.2031 19.1094 42.9961 19.0039C42.7891 18.8984 42.5293 18.8457 42.2168 18.8457H40.793V26H39.0352V17.4688ZM43.8047 26L41.8594 22.1973L43.7168 22.1855L45.6855 25.918V26H43.8047Z" fill="white"/>
    <rect x="64.5" y="16.5" width="11" height="11" rx="2.5" fill="white" stroke="#1B4752"/>
    <rect x="0.5" y="7.5" width="11" height="11" rx="2.5" fill="white" stroke="#1B4752"/>
    <rect x="0.5" y="25.5" width="11" height="11" rx="2.5" fill="white" stroke="#1B4752"/>
    <rect x="6.5" y="0.5" width="63" height="43" rx="2.5" fill="#007F9E" stroke="#1B4752"/>
    <path d="M37.7695 21.5352V21.9395C37.7695 22.5879 37.6816 23.1699 37.5059 23.6855C37.3301 24.2012 37.082 24.6406 36.7617 25.0039C36.4414 25.3633 36.0586 25.6387 35.6133 25.8301C35.1719 26.0215 34.6816 26.1172 34.1426 26.1172C33.6074 26.1172 33.1172 26.0215 32.6719 25.8301C32.2305 25.6387 31.8477 25.3633 31.5234 25.0039C31.1992 24.6406 30.9473 24.2012 30.7676 23.6855C30.5918 23.1699 30.5039 22.5879 30.5039 21.9395V21.5352C30.5039 20.8828 30.5918 20.3008 30.7676 19.7891C30.9434 19.2734 31.1914 18.834 31.5117 18.4707C31.8359 18.1074 32.2188 17.8301 32.6602 17.6387C33.1055 17.4473 33.5957 17.3516 34.1309 17.3516C34.6699 17.3516 35.1602 17.4473 35.6016 17.6387C36.0469 17.8301 36.4297 18.1074 36.75 18.4707C37.0742 18.834 37.3242 19.2734 37.5 19.7891C37.6797 20.3008 37.7695 20.8828 37.7695 21.5352ZM35.9941 21.9395V21.5234C35.9941 21.0703 35.9531 20.6719 35.8711 20.3281C35.7891 19.9844 35.668 19.6953 35.5078 19.4609C35.3477 19.2266 35.1523 19.0508 34.9219 18.9336C34.6914 18.8125 34.4277 18.752 34.1309 18.752C33.834 18.752 33.5703 18.8125 33.3398 18.9336C33.1133 19.0508 32.9199 19.2266 32.7598 19.4609C32.6035 19.6953 32.4844 19.9844 32.4023 20.3281C32.3203 20.6719 32.2793 21.0703 32.2793 21.5234V21.9395C32.2793 22.3887 32.3203 22.7871 32.4023 23.1348C32.4844 23.4785 32.6055 23.7695 32.7656 24.0078C32.9258 24.2422 33.1211 24.4199 33.3516 24.541C33.582 24.6621 33.8457 24.7227 34.1426 24.7227C34.4395 24.7227 34.7031 24.6621 34.9336 24.541C35.1641 24.4199 35.3574 24.2422 35.5137 24.0078C35.6699 23.7695 35.7891 23.4785 35.8711 23.1348C35.9531 22.7871 35.9941 22.3887 35.9941 21.9395ZM39.0352 17.4688H42.2168C42.8691 17.4688 43.4297 17.5664 43.8984 17.7617C44.3711 17.957 44.7344 18.2461 44.9883 18.6289C45.2422 19.0117 45.3691 19.4824 45.3691 20.041C45.3691 20.498 45.291 20.8906 45.1348 21.2188C44.9824 21.543 44.7656 21.8145 44.4844 22.0332C44.207 22.248 43.8809 22.4199 43.5059 22.5488L42.9492 22.8418H40.1836L40.1719 21.4707H42.2285C42.5371 21.4707 42.793 21.416 42.9961 21.3066C43.1992 21.1973 43.3516 21.0449 43.4531 20.8496C43.5586 20.6543 43.6113 20.4277 43.6113 20.1699C43.6113 19.8965 43.5605 19.6602 43.459 19.4609C43.3574 19.2617 43.2031 19.1094 42.9961 19.0039C42.7891 18.8984 42.5293 18.8457 42.2168 18.8457H40.793V26H39.0352V17.4688ZM43.8047 26L41.8594 22.1973L43.7168 22.1855L45.6855 25.918V26H43.8047Z" fill="white"/>
    <rect x="64.5" y="16.5" width="11" height="11" rx="2.5" fill="white" stroke="#1B4752"/>
    <rect x="0.5" y="7.5" width="11" height="11" rx="2.5" fill="white" stroke="#1B4752"/>
    <rect x="0.5" y="25.5" width="11" height="11" rx="2.5" fill="white" stroke="#1B4752"/>
</svg>
