<svg width="76" height="44" viewBox="0 0 76 44" fill="none"
    xmlns="http://www.w3.org/2000/svg">
    <rect x="6.5" y="0.5" width="63" height="43" rx="2.5" fill="#007F9E" stroke="#1B4752"/>
    <path d="M23.209 17.4688L24.8145 20.4453L26.4199 17.4688H28.4297L25.9512 21.6992L28.4941 26H26.4668L24.8145 22.9648L23.1621 26H21.123L23.6719 21.6992L21.1875 17.4688H23.209ZM36.3223 17.4688V26H34.5645L31.1367 20.2812V26H29.3789V17.4688H31.1367L34.5703 23.1934V17.4688H36.3223ZM44.8594 21.5352V21.9395C44.8594 22.5879 44.7715 23.1699 44.5957 23.6855C44.4199 24.2012 44.1719 24.6406 43.8516 25.0039C43.5312 25.3633 43.1484 25.6387 42.7031 25.8301C42.2617 26.0215 41.7715 26.1172 41.2324 26.1172C40.6973 26.1172 40.207 26.0215 39.7617 25.8301C39.3203 25.6387 38.9375 25.3633 38.6133 25.0039C38.2891 24.6406 38.0371 24.2012 37.8574 23.6855C37.6816 23.1699 37.5938 22.5879 37.5938 21.9395V21.5352C37.5938 20.8828 37.6816 20.3008 37.8574 19.7891C38.0332 19.2734 38.2812 18.834 38.6016 18.4707C38.9258 18.1074 39.3086 17.8301 39.75 17.6387C40.1953 17.4473 40.6855 17.3516 41.2207 17.3516C41.7598 17.3516 42.25 17.4473 42.6914 17.6387C43.1367 17.8301 43.5195 18.1074 43.8398 18.4707C44.1641 18.834 44.4141 19.2734 44.5898 19.7891C44.7695 20.3008 44.8594 20.8828 44.8594 21.5352ZM43.084 21.9395V21.5234C43.084 21.0703 43.043 20.6719 42.9609 20.3281C42.8789 19.9844 42.7578 19.6953 42.5977 19.4609C42.4375 19.2266 42.2422 19.0508 42.0117 18.9336C41.7812 18.8125 41.5176 18.752 41.2207 18.752C40.9238 18.752 40.6602 18.8125 40.4297 18.9336C40.2031 19.0508 40.0098 19.2266 39.8496 19.4609C39.6934 19.6953 39.5742 19.9844 39.4922 20.3281C39.4102 20.6719 39.3691 21.0703 39.3691 21.5234V21.9395C39.3691 22.3887 39.4102 22.7871 39.4922 23.1348C39.5742 23.4785 39.6953 23.7695 39.8555 24.0078C40.0156 24.2422 40.2109 24.4199 40.4414 24.541C40.6719 24.6621 40.9355 24.7227 41.2324 24.7227C41.5293 24.7227 41.793 24.6621 42.0234 24.541C42.2539 24.4199 42.4473 24.2422 42.6035 24.0078C42.7598 23.7695 42.8789 23.4785 42.9609 23.1348C43.043 22.7871 43.084 22.3887 43.084 21.9395ZM46.125 17.4688H49.3066C49.959 17.4688 50.5195 17.5664 50.9883 17.7617C51.4609 17.957 51.8242 18.2461 52.0781 18.6289C52.332 19.0117 52.459 19.4824 52.459 20.041C52.459 20.498 52.3809 20.8906 52.2246 21.2188C52.0723 21.543 51.8555 21.8145 51.5742 22.0332C51.2969 22.248 50.9707 22.4199 50.5957 22.5488L50.0391 22.8418H47.2734L47.2617 21.4707H49.3184C49.627 21.4707 49.8828 21.416 50.0859 21.3066C50.2891 21.1973 50.4414 21.0449 50.543 20.8496C50.6484 20.6543 50.7012 20.4277 50.7012 20.1699C50.7012 19.8965 50.6504 19.6602 50.5488 19.4609C50.4473 19.2617 50.293 19.1094 50.0859 19.0039C49.8789 18.8984 49.6191 18.8457 49.3066 18.8457H47.8828V26H46.125V17.4688ZM50.8945 26L48.9492 22.1973L50.8066 22.1855L52.7754 25.918V26H50.8945Z" fill="white"/>
    <rect x="64.5" y="16.5" width="11" height="11" rx="2.5" fill="white" stroke="#1B4752"/>
    <rect x="0.5" y="7.5" width="11" height="11" rx="2.5" fill="white" stroke="#1B4752"/>
    <rect x="0.5" y="25.5" width="11" height="11" rx="2.5" fill="white" stroke="#1B4752"/>
</svg>
