<svg width="76" height="44" viewBox="0 0 76 44" fill="none"
    xmlns="http://www.w3.org/2000/svg">
    <rect x="6.5" y="0.5" width="63" height="43" rx="2.5" fill="#007F9E" stroke="#1B4752"/>
    <path d="M27.209 17.4688L28.8145 20.4453L30.4199 17.4688H32.4297L29.9512 21.6992L32.4941 26H30.4668L28.8145 22.9648L27.1621 26H25.123L27.6719 21.6992L25.1875 17.4688H27.209ZM40.2344 21.5352V21.9395C40.2344 22.5879 40.1465 23.1699 39.9707 23.6855C39.7949 24.2012 39.5469 24.6406 39.2266 25.0039C38.9062 25.3633 38.5234 25.6387 38.0781 25.8301C37.6367 26.0215 37.1465 26.1172 36.6074 26.1172C36.0723 26.1172 35.582 26.0215 35.1367 25.8301C34.6953 25.6387 34.3125 25.3633 33.9883 25.0039C33.6641 24.6406 33.4121 24.2012 33.2324 23.6855C33.0566 23.1699 32.9688 22.5879 32.9688 21.9395V21.5352C32.9688 20.8828 33.0566 20.3008 33.2324 19.7891C33.4082 19.2734 33.6562 18.834 33.9766 18.4707C34.3008 18.1074 34.6836 17.8301 35.125 17.6387C35.5703 17.4473 36.0605 17.3516 36.5957 17.3516C37.1348 17.3516 37.625 17.4473 38.0664 17.6387C38.5117 17.8301 38.8945 18.1074 39.2148 18.4707C39.5391 18.834 39.7891 19.2734 39.9648 19.7891C40.1445 20.3008 40.2344 20.8828 40.2344 21.5352ZM38.459 21.9395V21.5234C38.459 21.0703 38.418 20.6719 38.3359 20.3281C38.2539 19.9844 38.1328 19.6953 37.9727 19.4609C37.8125 19.2266 37.6172 19.0508 37.3867 18.9336C37.1562 18.8125 36.8926 18.752 36.5957 18.752C36.2988 18.752 36.0352 18.8125 35.8047 18.9336C35.5781 19.0508 35.3848 19.2266 35.2246 19.4609C35.0684 19.6953 34.9492 19.9844 34.8672 20.3281C34.7852 20.6719 34.7441 21.0703 34.7441 21.5234V21.9395C34.7441 22.3887 34.7852 22.7871 34.8672 23.1348C34.9492 23.4785 35.0703 23.7695 35.2305 24.0078C35.3906 24.2422 35.5859 24.4199 35.8164 24.541C36.0469 24.6621 36.3105 24.7227 36.6074 24.7227C36.9043 24.7227 37.168 24.6621 37.3984 24.541C37.6289 24.4199 37.8223 24.2422 37.9785 24.0078C38.1348 23.7695 38.2539 23.4785 38.3359 23.1348C38.418 22.7871 38.459 22.3887 38.459 21.9395ZM41.5 17.4688H44.6816C45.334 17.4688 45.8945 17.5664 46.3633 17.7617C46.8359 17.957 47.1992 18.2461 47.4531 18.6289C47.707 19.0117 47.834 19.4824 47.834 20.041C47.834 20.498 47.7559 20.8906 47.5996 21.2188C47.4473 21.543 47.2305 21.8145 46.9492 22.0332C46.6719 22.248 46.3457 22.4199 45.9707 22.5488L45.4141 22.8418H42.6484L42.6367 21.4707H44.6934C45.002 21.4707 45.2578 21.416 45.4609 21.3066C45.6641 21.1973 45.8164 21.0449 45.918 20.8496C46.0234 20.6543 46.0762 20.4277 46.0762 20.1699C46.0762 19.8965 46.0254 19.6602 45.9238 19.4609C45.8223 19.2617 45.668 19.1094 45.4609 19.0039C45.2539 18.8984 44.9941 18.8457 44.6816 18.8457H43.2578V26H41.5V17.4688ZM46.2695 26L44.3242 22.1973L46.1816 22.1855L48.1504 25.918V26H46.2695Z" fill="white"/>
    <rect x="64.5" y="16.5" width="11" height="11" rx="2.5" fill="white" stroke="#1B4752"/>
    <rect x="0.5" y="7.5" width="11" height="11" rx="2.5" fill="white" stroke="#1B4752"/>
    <rect x="0.5" y="25.5" width="11" height="11" rx="2.5" fill="white" stroke="#1B4752"/>
</svg>
