<svg xmlns="http://www.w3.org/2000/svg" viewBox="0 0 18.24 25.48">
    <defs>
        <style>.cls-1{fill:#1d1d1b;}.cls-2{fill:#3c3c3b;}.cls-3{fill:#66b32e;}</style>
    </defs>
    <g id="Layer_2" data-name="Layer 2">
        <g id="Layer_1-2" data-name="Layer 1">
            <rect class="cls-1" width="18.24" height="25.48"/>
            <path class="cls-2" d="M4.8,14.12,4.65,15.3l-.8,6.16h0L2,23a2.22,2.22,0,0,1-.34-1l1.08-7.86,1.18-1Z"/>
            <path class="cls-2" d="M13.08,23.72a2.53,2.53,0,0,1-.81.33l-8.71-.11a2.27,2.27,0,0,1-1.19-.52l1.89-1.64h0l7.2.07Z"/>
            <path class="cls-3" d="M15.13,14.21,14,22.26a2.12,2.12,0,0,1-.55,1.13l-1.57-1.82,1-7.29,1.29-1.12Z"/>
            <polygon class="cls-3" points="13.88 12.77 12.69 13.8 5.2 13.8 4.36 12.82 5.68 11.68 12.94 11.68 13.88 12.77"/>
            <path class="cls-3" d="M16.59,3.48l-1.07,7.87h0l-1.24,1.07-.89-1,1-7.29,1.86-1.6A2,2,0,0,1,16.59,3.48Z"/>
            <path class="cls-2" d="M15.94,2.11,14.18,3.63H6.68L5.23,2A1.81,1.81,0,0,1,6,1.65h9A2,2,0,0,1,15.94,2.11Z"/>
            <path class="cls-3" d="M6.35,4,5.24,11.37,4,12.43l-.86-1L4.28,3.3a2.64,2.64,0,0,1,.56-1Z"/>
            <circle class="cls-2" cx="16.06" cy="22.91" r="1.21"/>
        </g>
    </g>
</svg>